/* XPM */
static char * meandmyshadow_xpm[] = {
"64 64 10 1",
" 	c None",
".	c #3D3D3D",
"+	c #2E2E2E",
"@	c #1F1F1F",
"#	c #7A7A7A",
"$	c #999999",
"%	c #B8B8B8",
"&	c #D6D6D6",
"*	c #FFFFFF",
"=	c #000000",
"                                                                ",
"                                                                ",
"                                                                ",
"                                                                ",
"                                                                ",
"                                                                ",
"                                                                ",
"                                                                ",
"                                                                ",
"                                                                ",
"                                                                ",
"                                                                ",
"                                  .   .   .   .   +             ",
"                                 @#+ +#+ +#+ +#+ .#@            ",
"                                @$$@@$$@@@$@@@$@@$$#@           ",
"                               @$$%%&&&&&&&&&&&&&%%$$@          ",
"                               +$%&***************&%$+          ",
"                               .%&***.+@+.***.+@+.*&%.          ",
"                               .%&***+*@*+***+*@*+*&%.          ",
"                               .%&***@**&@***@**&@&&$.          ",
"                               .%&****@@@&%.%&@@@&&%$+          ",
"                               +$%&***&&&&&&&&&&&&&%$@          ",
"                               @$$%%&&&&.+@@@+.&&%%$#@          ",
"                               @#$$$$%%%%%%%%%%%$$$##@          ",
"                                @@@@+.+...+....+@@@@@           ",
"                                      @#$#.#$$#@                ",
"                                      @#.$##$.#@                ",
"                                       @++++++@                 ",
"                                   .+@@##@.@$$#@@+.             ",
"                                  .$%&&&&&+&&&&&&%$.            ",
"          ===          ===        +$******.**&%&*&$+            ",
"         =====        =====       @&***$&*#&&%$%*&%@            ",
"         =====        =====       @&**$.&*&#&%.%*&%@            ",
"         =====        =====       @&*&$+&**.&%+%*&%@            ",
"          ===          ===        @&*&$@%**+&%@%*&%@            ",
"                                  @%*&$@%&*@%$@%*&$@            ",
"                                  +%*&#@%&&@%$@%&%$+            ",
"                                  .$###@$%%+$#@%$$#.            ",
"                                   .+.+@@@+.+@@+.+.             ",
"                                   +&*#+$%$#$#+&*#+             ",
"                                   @@@@@%*$.%$@@@@@             ",
"                                       @%*$+%$@                 ",
"                                       @%*$+%%@                 ",
"                                       @%*$.%%@                 ",
"                                       @%*.$%$@                 ",
"                                       @$*+$%$@                 ",
"                                       @$$@$$#@                 ",
"                                       +.+@+.+@                 ",
"                                       @*@ @*@                  ",
"                                      @*%+.*%@+.                ",
"                                      @$$#+$$$#+                ",
"                                      @@@@@@@@@@                ",
"                                                                ",
"                                                                ",
"                                                                ",
"                                                                ",
"                                                                ",
"                                                                ",
"                                                                ",
"                                                                ",
"                                                                ",
"                                                                ",
"                                                                ",
"                                                                "};
